{
    "asset" : {
        "generator" : "Khronos glTF Blender I/O v3.2.43",
        "version" : "2.0"
    },
    "scene" : 0,
    "scenes" : [
        {
            "name" : "Scene",
            "nodes" : [
                0
            ]
        }
    ],
    "nodes" : [
        {
            "mesh" : 0,
            "name" : "Baugruppe"
        }
    ],
    "materials" : [
        {
            "doubleSided" : true,
            "name" : "rot",
            "normalTexture" : {
                "index" : 0
            },
            "pbrMetallicRoughness" : {
                "baseColorFactor" : [
                    0.8000000715255737,
                    0.011330433189868927,
                    0.009501035325229168,
                    1
                ],
                "metallicFactor" : 0,
                "metallicRoughnessTexture" : {
                    "index" : 1
                }
            }
        },
        {
            "doubleSided" : true,
            "name" : "wei\u00df",
            "normalTexture" : {
                "index" : 2
            },
            "pbrMetallicRoughness" : {
                "baseColorFactor" : [
                    0.7760767936706543,
                    0.8000000715255737,
                    0.8000000715255737,
                    1
                ],
                "metallicFactor" : 0,
                "metallicRoughnessTexture" : {
                    "index" : 3
                }
            }
        }
    ],
    "meshes" : [
        {
            "name" : "baugruppe",
            "primitives" : [
                {
                    "attributes" : {
                        "POSITION" : 0,
                        "NORMAL" : 1,
                        "TEXCOORD_0" : 2
                    },
                    "indices" : 3,
                    "material" : 0
                },
                {
                    "attributes" : {
                        "POSITION" : 4,
                        "NORMAL" : 5,
                        "TEXCOORD_0" : 6
                    },
                    "indices" : 7,
                    "material" : 1
                }
            ]
        }
    ],
    "textures" : [
        {
            "sampler" : 0,
            "source" : 0
        },
        {
            "sampler" : 0,
            "source" : 1
        },
        {
            "sampler" : 0,
            "source" : 0
        },
        {
            "sampler" : 0,
            "source" : 1
        }
    ],
    "images" : [
        {
            "bufferView" : 4,
            "mimeType" : "image/jpeg",
            "name" : "Plastic_004_normal"
        },
        {
            "bufferView" : 5,
            "mimeType" : "image/png",
            "name" : "Plastic_004_roughness"
        }
    ],
    "accessors" : [
        {
            "bufferView" : 0,
            "componentType" : 5126,
            "count" : 452,
            "max" : [
                1.0099601745605469,
                0.7556536793708801,
                0.7540127635002136
            ],
            "min" : [
                0.5444463491439819,
                -0.7500007152557373,
                -0.7649456262588501
            ],
            "type" : "VEC3"
        },
        {
            "bufferView" : 1,
            "componentType" : 5126,
            "count" : 452,
            "type" : "VEC3"
        },
        {
            "bufferView" : 2,
            "componentType" : 5126,
            "count" : 452,
            "type" : "VEC2"
        },
        {
            "bufferView" : 3,
            "componentType" : 5123,
            "count" : 1020,
            "type" : "SCALAR"
        },
        {
            "bufferView" : 6,
            "componentType" : 5126,
            "count" : 902,
            "max" : [
                1.0099601745605469,
                0.831918478012085,
                0.8292688131332397
            ],
            "min" : [
                0.5458214282989502,
                -0.8323529362678528,
                -0.8437646627426147
            ],
            "type" : "VEC3"
        },
        {
            "bufferView" : 7,
            "componentType" : 5126,
            "count" : 902,
            "type" : "VEC3"
        },
        {
            "bufferView" : 8,
            "componentType" : 5126,
            "count" : 902,
            "type" : "VEC2"
        },
        {
            "bufferView" : 9,
            "componentType" : 5123,
            "count" : 1920,
            "type" : "SCALAR"
        }
    ],
    "bufferViews" : [
        {
            "buffer" : 0,
            "byteLength" : 5424,
            "byteOffset" : 0
        },
        {
            "buffer" : 0,
            "byteLength" : 5424,
            "byteOffset" : 5424
        },
        {
            "buffer" : 0,
            "byteLength" : 3616,
            "byteOffset" : 10848
        },
        {
            "buffer" : 0,
            "byteLength" : 2040,
            "byteOffset" : 14464
        },
        {
            "buffer" : 0,
            "byteLength" : 374516,
            "byteOffset" : 16504
        },
        {
            "buffer" : 0,
            "byteLength" : 567859,
            "byteOffset" : 391020
        },
        {
            "buffer" : 0,
            "byteLength" : 10824,
            "byteOffset" : 958880
        },
        {
            "buffer" : 0,
            "byteLength" : 10824,
            "byteOffset" : 969704
        },
        {
            "buffer" : 0,
            "byteLength" : 7216,
            "byteOffset" : 980528
        },
        {
            "buffer" : 0,
            "byteLength" : 3840,
            "byteOffset" : 987744
        }
    ],
    "samplers" : [
        {
            "magFilter" : 9729,
            "minFilter" : 9987
        }
    ],
    "buffers" : [
        {
            "byteLength" : 991584,
            "uri" : "data:application/octet-stream;base64,"
        }
    ]
}
