{
    "asset" : {
        "generator" : "Khronos glTF Blender I/O v1.2.75",
        "version" : "2.0"
    },
    "scene" : 0,
    "scenes" : [
        {
            "name" : "Scene",
            "nodes" : [
                0
            ]
        }
    ],
    "nodes" : [
        {
            "mesh" : 0,
            "name" : "m_Drill OBJ",
            "rotation" : [
                -0.008084586821496487,
                -0.474003404378891,
                0.0809335708618164,
                0.876758337020874
            ],
            "scale" : [
                0.09987443685531616,
                0.09987444430589676,
                0.09987443685531616
            ]
        }
    ],
    "materials" : [
        {
            "doubleSided" : true,
            "emissiveFactor" : [
                0,
                0,
                0
            ],
            "name" : "Material__25",
            "pbrMetallicRoughness" : {
                "metallicFactor" : 0,
                "roughnessFactor" : 0.9057191014289856
            }
        }
    ],
    "meshes" : [
        {
            "name" : "m_Drill OBJ",
            "primitives" : [
                {
                    "attributes" : {
                        "POSITION" : 0,
                        "NORMAL" : 1,
                        "TANGENT" : 2,
                        "TEXCOORD_0" : 3
                    },
                    "indices" : 4,
                    "material" : 0
                }
            ]
        }
    ],
    "accessors" : [
        {
            "bufferView" : 0,
            "componentType" : 5126,
            "count" : 10585,
            "max" : [
                2.8919599056243896,
                18.90764045715332,
                6.587550163269043
            ],
            "min" : [
                -2.760580062866211,
                -0.061889998614788055,
                -9.756779670715332
            ],
            "type" : "VEC3"
        },
        {
            "bufferView" : 1,
            "componentType" : 5126,
            "count" : 10585,
            "type" : "VEC3"
        },
        {
            "bufferView" : 2,
            "componentType" : 5126,
            "count" : 10585,
            "type" : "VEC4"
        },
        {
            "bufferView" : 3,
            "componentType" : 5126,
            "count" : 10585,
            "type" : "VEC2"
        },
        {
            "bufferView" : 4,
            "componentType" : 5123,
            "count" : 57804,
            "type" : "SCALAR"
        }
    ],
    "bufferViews" : [
        {
            "buffer" : 0,
            "byteLength" : 127020,
            "byteOffset" : 0
        },
        {
            "buffer" : 0,
            "byteLength" : 127020,
            "byteOffset" : 127020
        },
        {
            "buffer" : 0,
            "byteLength" : 169360,
            "byteOffset" : 254040
        },
        {
            "buffer" : 0,
            "byteLength" : 84680,
            "byteOffset" : 423400
        },
        {
            "buffer" : 0,
            "byteLength" : 115608,
            "byteOffset" : 508080
        }
    ],
    "buffers" : [
        {
            "byteLength" : 623688,
            "uri" : "data:application/octet-stream;base64,"
        }
    ]
}
