{
    "asset" : {
        "generator" : "Khronos glTF Blender I/O v3.2.43",
        "version" : "2.0"
    },
    "scene" : 0,
    "scenes" : [
        {
            "name" : "Scene",
            "nodes" : [
                0
            ]
        }
    ],
    "nodes" : [
        {
            "mesh" : 0,
            "name" : "Lagerdeckel",
            "scale" : [
                1.0538034439086914,
                1.0538034439086914,
                1.0538034439086914
            ],
            "translation" : [
                0.017629768699407578,
                -0.12091318517923355,
                0.07081008702516556
            ]
        }
    ],
    "materials" : [
        {
            "doubleSided" : true,
            "name" : "lagerdeckel",
            "normalTexture" : {
                "index" : 0
            },
            "pbrMetallicRoughness" : {
                "baseColorTexture" : {
                    "index" : 1
                },
                "metallicRoughnessTexture" : {
                    "index" : 2
                }
            }
        },
        {
            "doubleSided" : true,
            "name" : "middle",
            "normalTexture" : {
                "index" : 3
            },
            "pbrMetallicRoughness" : {
                "baseColorTexture" : {
                    "index" : 4
                },
                "metallicRoughnessTexture" : {
                    "index" : 5
                }
            }
        }
    ],
    "meshes" : [
        {
            "name" : "lagerdeckel",
            "primitives" : [
                {
                    "attributes" : {
                        "POSITION" : 0,
                        "NORMAL" : 1,
                        "TEXCOORD_0" : 2
                    },
                    "indices" : 3,
                    "material" : 0
                },
                {
                    "attributes" : {
                        "POSITION" : 4,
                        "NORMAL" : 5,
                        "TEXCOORD_0" : 6
                    },
                    "indices" : 7,
                    "material" : 1
                }
            ]
        }
    ],
    "textures" : [
        {
            "sampler" : 0,
            "source" : 0
        },
        {
            "sampler" : 0,
            "source" : 1
        },
        {
            "sampler" : 0,
            "source" : 2
        },
        {
            "sampler" : 0,
            "source" : 3
        },
        {
            "sampler" : 0,
            "source" : 4
        },
        {
            "sampler" : 0,
            "source" : 5
        }
    ],
    "images" : [
        {
            "mimeType" : "image/png",
            "name" : "Metal032_1K_NormalDX",
            "uri" : "Metal032_1K_NormalDX.png"
        },
        {
            "mimeType" : "image/png",
            "name" : "Metal032_1K_Color",
            "uri" : "Metal032_1K_Color.png"
        },
        {
            "mimeType" : "image/png",
            "name" : "Metal032_1K_Roughness",
            "uri" : "Metal032_1K_Roughness.png"
        },
        {
            "mimeType" : "image/png",
            "name" : "metal_0065_normal_directx_4k",
            "uri" : "metal_0065_normal_directx_4k.png"
        },
        {
            "mimeType" : "image/jpeg",
            "name" : "metal_0065_color_4k",
            "uri" : "metal_0065_color_4k.jpg"
        },
        {
            "mimeType" : "image/png",
            "name" : "metal_0065_ao_4k-metal_0065_roughness_4k",
            "uri" : "metal_0065_ao_4k-metal_0065_roughness_4k.png"
        }
    ],
    "accessors" : [
        {
            "bufferView" : 0,
            "componentType" : 5126,
            "count" : 12429,
            "max" : [
                0.42141926288604736,
                0.9084920287132263,
                0.90860515832901
            ],
            "min" : [
                0.017920909449458122,
                -0.9002043604850769,
                -0.918718159198761
            ],
            "type" : "VEC3"
        },
        {
            "bufferView" : 1,
            "componentType" : 5126,
            "count" : 12429,
            "type" : "VEC3"
        },
        {
            "bufferView" : 2,
            "componentType" : 5126,
            "count" : 12429,
            "type" : "VEC2"
        },
        {
            "bufferView" : 3,
            "componentType" : 5123,
            "count" : 25023,
            "type" : "SCALAR"
        },
        {
            "bufferView" : 4,
            "componentType" : 5126,
            "count" : 124,
            "max" : [
                0.019616544246673584,
                0.22908756136894226,
                0.41347450017929077
            ],
            "min" : [
                0.01892268657684326,
                -0.5154211521148682,
                -0.36095231771469116
            ],
            "type" : "VEC3"
        },
        {
            "bufferView" : 5,
            "componentType" : 5126,
            "count" : 124,
            "type" : "VEC3"
        },
        {
            "bufferView" : 6,
            "componentType" : 5126,
            "count" : 124,
            "type" : "VEC2"
        },
        {
            "bufferView" : 7,
            "componentType" : 5123,
            "count" : 360,
            "type" : "SCALAR"
        }
    ],
    "bufferViews" : [
        {
            "buffer" : 0,
            "byteLength" : 149148,
            "byteOffset" : 0
        },
        {
            "buffer" : 0,
            "byteLength" : 149148,
            "byteOffset" : 149148
        },
        {
            "buffer" : 0,
            "byteLength" : 99432,
            "byteOffset" : 298296
        },
        {
            "buffer" : 0,
            "byteLength" : 50046,
            "byteOffset" : 397728
        },
        {
            "buffer" : 0,
            "byteLength" : 1488,
            "byteOffset" : 447776
        },
        {
            "buffer" : 0,
            "byteLength" : 1488,
            "byteOffset" : 449264
        },
        {
            "buffer" : 0,
            "byteLength" : 992,
            "byteOffset" : 450752
        },
        {
            "buffer" : 0,
            "byteLength" : 720,
            "byteOffset" : 451744
        }
    ],
    "samplers" : [
        {
            "magFilter" : 9729,
            "minFilter" : 9987
        }
    ],
    "buffers" : [
        {
            "byteLength" : 452464,
            "uri" : "Lagerdeckel.bin"
        }
    ]
}
